<?xml version="1.0" encoding="UTF-8"?>
<svg id="katman_1" xmlns="http://www.w3.org/2000/svg" xmlns:xlink="http://www.w3.org/1999/xlink" version="1.1" viewBox="0 0 1094 577">
  <!-- Generator: Adobe Illustrator 30.3.0, SVG Export Plug-In . SVG Version: 2.1.3 Build 182)  -->
  <defs>
    <style>
      .st0 {
        fill: none;
      }

      .st1 {
        fill: gray;
      }

      .st2 {
        fill: #e2e2e2;
      }

      .st3 {
        fill: #a2a2a3;
      }

      .st4 {
        fill: #bcbcbc;
      }

      .st5 {
        fill: #9e9e9e;
      }

      .st6 {
        fill: #353535;
      }

      .st7 {
        clip-path: url(#clippath);
      }
    </style>
    <clipPath id="clippath">
      <rect class="st0" width="1094" height="577"/>
    </clipPath>
  </defs>
  <g class="st7">
    <g>
      <path class="st5" d="M662.62,351.1c-.01-.12-.02-.24-.04-.35v-.12c-.25-1.86-.75-4.09-1.62-5.82-1.12-2.35-1.12-3.35-1.61-5.82-.62-3.1-1.49-1.86-3.48-.74-4.59,2.6-11.18,1.12-14.28-2.23-.75-.87-.99-2.35-1.49-3.22-.87-1.61-.13-.99-1.62-2.23-.62-.5-1.24-.25-1.86-.74-.25-.13-.37-.99-.62-1.24-.62-.87-1.24-1.86-1.37-2.97-1.86-.5-5.47-.87-7.45-.37-2.36.5-3.48,2.11-6.34.99.37-1.86,2.49-2.97,1.12-4.96-1.24-1.86-4.97-1.86-5.96.25-2.49.12-6.2-1.47-8.19-.12h-.01c-.37.25-.62.62-.87.99,0,0-1.95.17-1.99-1.73-.13-2.85-2.73-3.59-4.35-5.58-.5-.62-.5-1.86-.99-2.6-.62-.99-1.62-1.49-2.48-2.36-1.24-1.12-2.49-2.48-3.6-3.84-.37-.5-1.12-.25-1.37-.74-.25-.25.25-1.12,0-1.36-1.71-.3-.91-1.65-.91-1.65,1.95-3.56,3.71-7.83.29-11.61,2.24-2.11.37-5.82,3.1-7.19-6.09-3.59,5.72-14.38,9.94-16.11,1.99-.87,3.97-.37,5.59-1.49,1.12-.87,2.48-3.59,3.35-4.96.87-1.24,1.37-3.22,2.73-3.97,3.6-1.86,5.47.74,6.96-3.84.87-2.48.5-6.45-.12-8.92-1-3.97-5.72-4.83-5.72-9.67-3.35.37-2.86-1.12-5.09-2.11-.5-.25-1.74-1.12-2.48-1.49-.25-.12-1.61,1.12-2.61.5-1.12-.74-.13-2.35-.62-2.97-.99-.99-1.86-.62-2.86-1.24-1.61-1.12-3.1-2.11-4.72-2.85-3.35-2.48,1.99-7.31,3.11-10.29.5-1.24.62-2.85,1.24-4.09.75-1.36,2.48-.99,2.48-2.85,0-1.24-4.1-4.34-5.22-4.83-.13-2.36-.13-4.71,0-7.07.62,0,1.37-.25,1.86-.12,1.62-2.85,6.09-4.34,8.94-6.07,5.59-3.47,1.12-6.69,4.47-10.66,1.24-1.49,9.07-4.58,11.3-4.96,3.6-.62,7.95,2.48,9.69-2.36,2.36,1.24,4.6-2.48,6.21-4.21,2.61-2.73,3.6-4.96,2.36-8.68-.87-2.6-3.35-4.21-.62-7.19,2.48-2.73,7.21-.5,9.56-2.11,2.86-1.86-.37-6.44,2.11-8.8,1.12-1.12,3.35-.37,4.72-1.12,1.74-.99,2.24-2.6,4.1-3.35,2.11-.87,8.82.5,10.06-.74,2.73-2.73-2.11-6.07,3.11-7.68,1.49-.5,4.1,0,5.59.5,0,2.11,1.99,3.97,4.1,3.97,2.86-.13,2.24-1.86,2.36-4.46.37-7.81,2.24-4.96,7.95-3.59,3.85.99,27.08,3.1,25.84-3.1,3.6-.87,2.36,2.85,4.47,3.97,1.74.87,5.84-.25,7.2-.74,2.11-.74,4.72-2.23,3.85-4.96-.62-1.98-4.35-.99-3.48-4.71,1.61-.62,3.35-.62,5.09-.37.25.25.25.5.5.74.5-2.48,4.46-3.97,4.33-.12h1.25c0-.25.13-.5.13-.74,1.24,1.24,3.48,3.22,5.59,3.22,2.24,0,2.73-2.23,5.22-1.49.13.37,0,.74.12,1.12,1.24,0,2.49.25,3.6-.25,2.36,3.22,3.97-1.98,5.59-3.47,2.61-2.6,6.58-3.47,9.19-6.07.12,1.61,0,3.1.12,4.71,3.23.87,5.34,1.61,7.95,2.85,3.23,1.61,4.6.74,7.58.5,0,.5,0,.99.13,1.49,1.24.12,3.73-.5,4.72.12,1.24.62,1.62,2.73,2.73,3.59,1.12.74,2.98.37,4.35,1.24,2.11,1.36,1.24,1.98,4.22,2.73,3.48.87,7.21.74,10.68,1.61,3.85.87,9.32,3.97,13.29.99.87,6.69,7.81,5.81,13.28,6.18l1.45-.43c.75,2.6-1.43,4.29-1.18,6.39.13,1.24,1.62,1.36,2.11,2.6.25.5-.12,1.24,0,1.74.13.25.75,1.74.87,1.74.37,3.47-1.99,2.23-3.48,4.83-.5.87.12,2.35-.37,3.47-.62,1.12-2.11.5-2.11,2.48-.62.12-.87.62-1.49.62-.5,2.11-2.61,2.85-3.23,4.46-.5,1.12-.75,3.84-.5,5.08.13,1.12.99,1.49,1.12,2.73,0,1.36-.62,1.61-.99,2.73-.62,1.98-.37,2.73-.13,4.59.25,1.61,1.49,2.97,1.62,4.21.25,1.98-1.12,2.48-1.37,4.21-.5,3.1,1.24,7.19,1.12,10.41.25-.12.75,0,.99,0,0-.37,0-.87.12-1.24,2.48,0,1.74,3.1,1.86,4.71,4.22.5.12,12.27,4.47,9.42.62-.5.5-1.61,1.37-2.23.99-.74,1.99-.25,3.23-.5,2.11-.37,4.1-1.98,6.09-3.22,1.24,1.61,1.12,7.19.62,9.05.5-.37.75-.13,1.37-.62-.99,7.68,6.96.12,9.56,2.85.5.5,1.86,5.58,1.99,6.32.12,2.48-2.24,3.59-2.11,5.82,1.86.12,3.85,0,5.84.12.75,1.61,2.24,3.1,3.48,3.97.87,2.6.99,6.07,1.12,8.8.12,3.59-2.98,4.83-3.23,7.93-.37.25-.75.37-1.12.62-2.61,1.12-5.71.99-8.94.74-.75-.74-1.24-1.61-.13-2.11.87-2.97-2.48-3.59-4.47-2.85-.5.12-1.86.99-2.36,1.24-1.24.62-1.86,1.24-2.98,1.86-3.48,1.98-11.8,1.98-15.03,0-1.62-.99-4.1-4.83-6.09-4.21-.87.25-.99,1.74-1.62,2.35-.87.87-1.86.87-2.98,1.61-.62.37-1.24,2.11-1.86,2.35-1.62.62-2.11-.74-3.11-.99-2.24-.62-4.35-.87-6.46-2.23-1.12-.74-1.99-1.61-3.23-1.98-1.74-.5-3.35.12-4.72-.62-2.24-1.24-4.85-3.47-7.7-3.59-.13,1.61.87,5.95-1.37,5.82-.12,1.74.75,4.96-1.86,4.59-.12,1.61,0,3.22-.12,4.71-2.48.74-3.35-2.48-5.22-1.86-1.24,1.73-4.6-.37-5.22,2.85,0-.12.13-.12.13-.12-.75,1.86-3.23,2.97-4.85,3.97-2.36,1.36-2.86,1.12-4.47-1.24-2.11-3.35-1.62-1.98-4.22,0-1.37.99-4.6,1.12-3.98,3.97.37,1.74,3.6,3.97.25,4.46-.99.12-1.12-1.61-2.73-.62-1.49.99-.75,1.61-.5,2.85s1.24.99,1.12,2.6c0,.37-.87,2.6-1.12,2.85-.99,1.24-4.35,3.1-5.71,2.73-.25-.12-.75,0-1.12-.12.5-2.23-1.61-3.35-1.99-.74-2.73.5-4.72-3.97-5.09-5.58-.75-3.22-2.36-4.09-4.84-1.36-.5.62,0,1.36-.5,1.86-.75.74-1.74.5-2.48.87-.87.37-3.48,1.24-3.98,1.98-1.86,2.6,1.49,5.45,1.24,8.18-.12,1.61-3.6,2.85-4.84,3.84-2.36,1.98-3.11,4.46-6.46,5.33-3.73.99-3.35,1.61-3.48,5.33-1.49.74-2.48,5.2-2.98,7.06-.5,1.98-.87,5.82-3.35,6.2.13,1.49,5.47,4.09.75,5.08.25.37.25.12.5.25,0,1.61,1.74,2.11,2.24,3.47.5,1.36-.37,3.35,0,4.83.25.87.99,1.36,1.24,1.98.13.37.25,1.49.37,1.74.62.99,1.62,2.48,2.61,3.22,1.74,5.95-7.7,1.98-8.07,6.07-1.99,1.61-5.84.87-8.07.62-2.86-.25-6.21,0-9.07-.5-2.11-.37-1.86-.62-3.85.5-1.62.99-1.37,1.24-3.48,1.36-2.11.13-6.46-1.86-7.45-3.47-.25,2.48-1.61,2.48-2.98,3.72-2.24,1.98-2.24,1.49-5.09,2.11-1.24.25-1.74.99-2.61,1.36-1.49.5-1.99,0-3.48.87-1.12.74-.87,1.49-2.36,1.73-.75.13-1.74-.5-2.61-.5-.87,2.97-4.22.99-6.21,2.85-1.37,1.36-1.12,4.58-3.11,5.2-.25.12-.5.12-.87.12"/>
      <path class="st6" d="M547.26,407.18c-.93-.47-1.85-.94-2.56-1.65-1.86-1.86-6.21-4.34-7.33-6.32.5,0,1.24-.5,1.86-.5.25-1.86-.87-3.22-2.73-3.22,1.12-2.97-.12-4.58-.37-7.44,3.23-.62,2.48-5.2,1.49-7.44-1.49-3.35-4.47-3.72-2.36-8.18,1.86-3.72,3.73-3.84,7.58-4.21,4.6-.5,4.72-2.35,7.58-5.7,2.61-2.97,6.21-3.97,8.94-6.44,2.48-2.11,4.35-4.46,6.71-6.82,2.24-2.23,4.85-3.84,7.33-5.58,2.86-1.98,6.71-2.73,9.07-4.58-2.86,0-1.86-3.22-1.86-5.33,0-1.12.13-2.48,0-3.59-.25-1.24-1.24-3.1-1.37-3.97-.13-3.72,1.86-2.11,3.85-5.2,1.37-2.11.62-3.47.37-6.07-.62-6.44,4.6-6.44,7.2-11.28,0,0,1.03-.57,1.49.5.25.25-.25,1.12,0,1.36.25.5.99.25,1.37.74,1.12,1.36,2.36,2.73,3.6,3.84.87.87,1.86,1.36,2.48,2.36.5.74.5,1.98.99,2.6,1.61,1.98,4.22,2.73,4.35,5.58,1.24,0,2.11.25,2.73.62,2.36,1.74.99,6.69,2.86,9.3-2.48,1.73-.5,3.72,1.62,4.09.75,1.73,1.74,4.09,2.24,5.82.62,2.36-1.24,5.95,2.86,6.45.12,1.61.25,3.22.37,4.71,0,.87.25,2.23.13,2.85-.13.25-1.37,1.36-1.62,1.98-.37.74-.5,1.73-.62,2.48-.37,3.72.5,3.97-3.48,4.46-1.61.13-3.35.62-4.97.62-.62.99-.62,1.98-.62,3.1,0,.5-.25,1.49,0,1.86.62,1.12,1.49.25,2.11,1.12.87,1.24.99,2.23.75,3.72-.12.62-1.12.62-.99,1.49.13.99,1.24.99,1.62,1.86.87,2.35.99,5.08,1.61,7.44.62,2.23,1.99,4.21,2.73,6.44.12.25.12.5.25.74-2.49.37-4.47.74-6.71,1.36-2.86.74-6.83-.13-9.32,1.61-3.85,2.73.5,7.06.75,10.53.25,2.35.13,4.71,0,7.06v1.36s-.63.76-1.33,0c-1.86-.62-3.52-4.09-5.26-4.96-1.61-.74-3.35-.5-4.84-1.36-3.48-1.98-4.22-4.83-9.07-4.58-.13-.74-.62-1.61-.62-2.36-.99,0-1.99,0-2.86-.37.5-1.86-1.12-1.24-1.37-2.6-.25-.87.25-2.23.25-3.22.12-3.47-.5-3.1-3.48-3.97-.25-1.74-3.85-3.22-5.59-2.85,0,2.36-.87,3.97-2.73,5.58-1.99,1.74-4.1,1.24-6.58,1.36-.13,1.86-.37,2.6-.99,3.84-.75,1.49-1.12,1.98-1.24,4.09-.25.25-.5.12-.75.12-.13,2.11-1.99.74-3.23,1.49-1.12.62-1.37,2.35-2.24,3.22-.01.01-.04.04-.05.04-.11.09-.21.1-.32.21l.32-.21Z"/>
      <path class="st1" d="M615.38,465.51c.25-.25.37-.5.62-.62,1.24-.87,2.73-.87,3.23-2.6,2.73-.74,4.47-3.47,6.71-4.09,3.11-.87,6.83-.25,9.81-1.86-.12,0-.12-.13-.12-.13-1.24-2.48-3.98-3.84-5.09-6.44-.62-1.24-.75-3.22-1.37-4.34-1.12-2.11-2.73-2.48-2.86-5.08-2.36-.5-1.99-2.97-2.86-4.58-.75-1.61-1.62-2.23-2.11-4.46-.87-4.09-2.98-5.2-5.34-8.3-2.36-3.1-6.34-5.45-10.19-7.56-1.62-.99-5.71-.74-5.96-2.85-.25,0-.5-.12-.75-.12-.62-.12-.99-.5-1.37-.99-1.86-.62-3.35-1.86-5.09-2.73-1.61-.74-3.35-.5-4.84-1.36-3.48-1.98-4.22-4.83-9.07-4.58-.13-.74-.62-1.61-.62-2.35-.99,0-1.99,0-2.86-.37.5-1.86-1.12-1.24-1.37-2.6-.25-.87.25-2.23.25-3.22.12-3.47-.5-3.1-3.48-3.97-.25-1.74-3.85-3.22-5.59-2.85,0,2.36-.87,3.97-2.73,5.58-1.99,1.74-4.1,1.24-6.58,1.36-.13,1.86-.37,2.6-.99,3.84-.75,1.49-1.12,1.98-1.24,4.09-.25.25-.5.12-.75.12-.13,2.11-1.99.74-3.23,1.49-1.12.62-1.37,2.35-2.24,3.22-.12.12-.25.12-.37.25l.32-.21c.06.02.11.06.17.09,2.24,1.12,4.35,1.98,3.6,4.96-2.61.37-5.59-.37-7.95.62.5,2.48,3.6,4.09,4.47,6.69.99,2.85,1.24,6.81,1.62,9.91,3.11.99,2.98-2.11,5.09-2.97,2.11-.87,4.1.99,5.34-1.24,4.97-.62,5.22,5.58,5.09,9.05-.75,0-1.99.5-2.73.25.25.37.25,1.12.62,1.73-.37-.12-1.24,0-1.86-.25.62.74.99,2.11,1.62,2.85h-1.24c0,.37,0,1.36-.13,1.86-2.36-.37-3.35,1.49-2.73,3.59,2.73.62,4.1-1.74,7.08-1.12.62,6.07,6.34-.25,9.56.25,2.61.37,4.47,2.73,6.71,4.09,3.35,1.98,7.58.99,11.18,2.23,2.86.99,5.22,4.34,4.85,7.56,2.61.5,7.83,1.49,8.07,4.83,2.86-.12,3.6-2.23,6.33-1.12,1.62.74,2.61,2.6,4.1,3.72.01.01.02.03.04.03l-.78.72Z"/>
      <path class="st3" d="M635.59,456.14s.03.05.04.07c0,0,0,.12.12.12-2.98,1.61-6.71.99-9.81,1.86-2.24.62-3.97,3.35-6.71,4.09-.47,1.66-1.86,1.74-3.07,2.5-.05.03-.11.06-.16.1-.25.13-.37.37-.62.62l.78-.72c.36.36.72.6,1.08.72,1.12.5,2.36-.25,3.48.5.87.62,1.12,2.6,1.74,3.47,1.49,2.23,3.6,3.97,5.22,5.7,4.72,4.96,10.44,11.28,14.04,17.23,1.49,2.35,2.11,5.08,3.6,7.56,2.24,3.47,5.34,6.82,7.58,10.41,1.74,2.85,2.86,5.82,4.6,8.68.75,1.12,1.74,2.6,2.73,4.21.02.02.04.06.06.09l-.43.41c.12-.13.37-.25.5-.5,1.74-2.11.37-5.08,1.37-7.68,1.12-2.6,5.09-1.98,7.33-.62,2.24,1.36,3.6,3.47,6.83,2.48,1.74-.5,4.1-3.35,3.73-5.33.5.12,1.86.5,2.36.25.87-.37,1.12-1.49,1.74-1.86,1.24-.74,2.98-.13,3.48-1.86,2.11.25,2.11-1.86,3.73-2.48,1.49-.62,3.73.25,5.34,0,2.24-.37,3.85-2.11,6.21-2.35,2.24-.25,4.47.12,6.83-.37.37,0,.75-.87,1.37-.99.87,0,.87.87,1.37.87,1.12,0,1.99-.37,2.98-.5,1.86-.25.87-.5,2.61,0,1.49.5.62,1.36,2.48.74,5.84-1.74,4.97-9.05,6.96-13.88,1.99-4.96,5.22-9.17,7.2-13.88.25-.62.37-1.36.5-2.23l.13.37c.5-3.47.12-8.8-1.37-11.15-2.36-3.84-7.08-6.07-5.34-11.77.99-2.97,3.73-5.2,4.22-8.55.25-1.36.75-6.82-.37-7.68-.12-.12-.25-.12-.5-.12-1.24,0-3.85,1.73-5.59,1.12-1.37-.5-1.37-1.61-2.98-.99-1.37.62-.37,2.73-2.61,2.11-.5-2.23.99-9.67-1.86-9.29-.99.12-2.36,2.23-3.48,2.6-1.86.5-4.22-.5-5.96.25-2.86,1.24-3.23,9.79-7.83,4.83-1.12-1.24-.87-2.6-2.61-2.97-.5-.12-2.86.74-3.73.74,1,4.46-4.35-2.23-5.09-2.97-2.24-2.23-1.24-.99-3.48-.62-1.37.25-2.98-.74-4.47-.25-1.99.74-3.97,4.21-5.47,5.82-.62.62-1.37,2.6-2.11,2.97-1.49.74-.87-.25-2.48-.5-2.24-.37-4.85,0-7.2-.25-3.11-.25-4.72.5-7.21.74-.37,0-1.74-.74-2.36-.74-.25,0-1.49.5-1.99.5-1.49.12-2.36-.25-3.48.62-1.61,1.12-2.36,4.09-3.73,5.95-.99,1.36-2.86,1.74-3.73,2.85-.75.99-.87,3.1-1.49,4.34-.87,1.49-2.86,3.97-4.72,4.59-.25,0-.5.12-.75.12"/>
      <path class="st4" d="M764.07,467.49c-.62.25-1.49.37-2.36.5-1.74.12-3.6-.12-5.34,0-2.24.25-4.72,2.48-6.96,1.61-1.74-.62-2.11-3.1-3.48-4.46-1.24-1.24-4.47-2.48-4.1.62-3.48-.5-5.09,5.2-7.08,7.68v.12c-.12.87-.25,1.61-.5,2.23-1.99,4.71-5.22,8.92-7.2,13.88-1.99,4.83-1.12,12.14-6.96,13.88-1.86.62-.99-.25-2.48-.74-1.74-.5-.75-.25-2.61,0-.99.13-1.86.5-2.98.5-.5,0-.5-.87-1.37-.87-.62.13-.99.99-1.37.99-2.36.5-4.59.12-6.83.37-2.36.25-3.97,1.98-6.21,2.35-1.61.25-3.85-.62-5.34,0-1.61.62-1.61,2.73-3.73,2.48-.5,1.74-2.24,1.12-3.48,1.86-.62.37-.87,1.49-1.74,1.86-.5.25-1.86-.12-2.36-.25.37,1.98-1.99,4.83-3.73,5.33-3.23.99-4.6-1.12-6.83-2.48-2.24-1.36-6.21-1.98-7.33.62-.99,2.6.37,5.58-1.37,7.68,0,0-.07.06-.06.09,1.22,1.83,2.56,3.64,3.54,4.5,1.74,1.61,4.47,1.61,6.58,2.11,2.48.62,3.6,1.49,5.84,2.48,6.83,2.85,13.29,4.09,16.89,11.28,2.11,4.21,2.86,5.45,7.7,5.45,3.48,0,6.46-1.49,9.69-.37,2.11.74,3.6,2.48,5.59,3.35,2.48,1.12,5.34,1.73,8.07,2.85,3.32,1.35,6.73,2.57,9.94,3.92,0,0,.02.01.02,0,.45-3.22,2.96-4.35,2.58-7.76-.12-1.74-.5-2.6-.12-4.09.5-1.61,1.24-2.36,1.12-4.21,1.12-.12,2.11.5,3.11.74.13-3.1.37-6.57,1.99-9.29.5.87,1.24,2.48,2.11,3.1,1.12.74,2.11.5,3.1,1.49.62.5.62,2.97,2.24,2.35.87-.37.5-2.6.62-3.47,3.73.5,2.48-1.98,3.73-3.84,1.24-2.11,3.6-.25,5.96-1.12,4.1-1.61,4.35-6.69,2.86-9.79-1.12-2.48-.99-2.6-.75-5.33.13-.74.25-2.23,0-2.97-.37-1.36-.99-1.24-1.61-2.35-.62-1.12-1.37-4.71-.87-6.2.99-2.48,3.48-2.35,5.59-2.48.62-.74.99-1.86.87-2.85,2.36-.87,1.74-2.36,2.36-4.59.5-1.86,2.36-4.46,2.48-6.69,0-.62-.12-1.24-.37-1.86-.75-1.12-1.24-.62-1.74-2.23-.37-1.12,0-2.23-.5-3.35-.37-.99-1.12-1.49-1.37-2.48-.5-2.36.99-4.71.62-7.19-.5-2.11-2.24-3.72-4.1-4.96Z"/>
      <path class="st4" d="M874,246.6c2.98.25,2.25,3.28,4.11,4.52,1.62,1.12,3.73-1.12,5.47-1.98,2.24-1.24,3.85-1.86,6.46-.5,2.73,1.49,2.73,2.48,3.23,5.08.25,1.86.37,3.72.75,5.7.25,1.36.99,1.74,1.37,2.85.37.99-.25,2.35,0,3.47.5,2.73,3.97,3.59,5.84,5.2,1.86,1.74,2.61,3.72,4.97,4.96,3.35,1.86,10.31,2.97,8.82,8.3-1.24,4.46-4.85,1.49-7.7,2.97-1.37.74-1.12,1.98-1.99,3.1-.87.99-2.11,1.36-2.86,2.35,1.24.37,1.49,1.24,2.36,1.98.99.74.87.74,1.99,1.24.5.25,1.37.12,1.86.37,2.73.99,3.85,3.22,1.99,5.58-.87,1.12-2.36,1.36-3.23,2.6-.75,1.12-.62,1.86-1.12,2.97-.87,1.98-1.61,4.21-3.1,5.82-2.36,2.48-4.47,4.21-5.96,7.44-1.24,2.97-3.23,5.2-4.84,8.05-2.36,4.09-.75,8.8-1.86,13.14-.75,2.6-1.74,4.71-1.12,7.68.25.74.37,1.61.5,2.48.01.06.03.14.04.2l-6.62.3c.13,0-1.86,1.12-2.36,1.24-.5.25-2.48-.37-3.23-.25,0,.25-.13.62-.13.99-1.99.37-4.35-.5-5.34,1.36,0,0-.4.56-1.04.1-.48-.43-1.17-.76-1.94-1.09-2.48-.99-5.47-.87-6.21-3.97-.75-2.73.12-4.34-2.98-5.82-2.36-1.24-5.09-.87-7.83-1.12-2.24-.25-4.35-1.49-6.34-1.86-2.11-.5-4.72-.25-6.71-.37-1.24,0-2.73,0-3.98.12-1.49.25-1.99.87-3.23,1.24-2.24.62-4.85.37-7.2.37-1.74,0-4.85-.99-6.34-.25.12.5-.25,1.36-.25,1.61-2.24-.37-3.85-2.73-5.84-3.84-1.74-.87-7.58-2.85-9.19-.25-.62,1.12.5,3.35,0,4.58-.37.87-1.99,2.23-2.73,2.85-3.23,2.73-5.09,2.48-9.32,2.73-.12,2.85.37,5.82-.99,8.3-1.37,2.48-2.48,6.2-4.97,8.06-1.99,1.36-5.84,1.61-8.2,2.35-3.73,1.12-6.83-1.61-10.06,1.36-2.11,1.86-2.98,4.96-5.34,6.44-1.24.74-1.12-.25-2.11.99-.62.74-.62,2.11-1.12,2.97-1.86,2.85-4.72,2.11-7.83,2.11-4.85,0-10.31-.74-15.03,0-.87.13-1.74.62-2.73.74-.87.25-1.86,0-2.86.25-2.24.5-3.6,2.23-4.6,4.21-1.62-.37-2.11-1.74-3.85-2.11-.76-.17-1.96-.22-2.98-.05l-1.25.42c-.06-.09-.14-.17-.24-.25-.37-.37-1.12-.5-2.36-.74-2.11-.37-3.6-.62-5.84-.74-1.86-.12-3.73-.5-4.84-1.98-1.12-1.49-.87-3.1-1.62-4.71-.87-1.98-2.48-3.97-3.97-5.82-1.49-1.73-2.36-2.85-3.6-4.83-.25-.5-1.12-1.12-1.49-1.61-.37-.62-.5-1.61-1.12-2.11-1.12-.99-3.23-.5-4.97-.62.25-4.83-6.83-4.21-10.68-4.71-2.11-.25-5.47-1.98-7.58-1.36-1.74.5-2.98,3.1-5.09,1.12-1.42-1.18-1.04-5.25-1.21-7.46l.8-.91c1.99-.62,1.28-3.04,2.65-4.4,1.99-1.86,5.34.12,6.21-2.85.87,0,1.86.62,2.61.5,1.49-.25,1.24-.99,2.36-1.73,1.49-.87,1.99-.37,3.48-.87.87-.37,1.37-1.12,2.61-1.36,2.86-.62,2.86-.13,5.09-2.11,1.37-1.24,2.73-1.24,2.98-3.72.99,1.61,5.34,3.59,7.45,3.47,2.11-.12,1.86-.37,3.48-1.36,1.99-1.12,1.74-.87,3.85-.5,2.86.5,6.21.25,9.07.5,2.24.25,6.09.99,8.07-.62.37-4.09,9.81-.13,8.07-6.07-.99-.74-1.99-2.23-2.61-3.22-.13-.25-.25-1.36-.37-1.74-.25-.62-.99-1.12-1.24-1.98-.37-1.49.5-3.47,0-4.83-.5-1.36-2.24-1.86-2.24-3.47-.25-.12-.25.13-.5-.25,4.72-.99-.62-3.59-.75-5.08,2.48-.37,2.86-4.21,3.35-6.2.5-1.86,1.49-6.32,2.98-7.06.13-3.72-.25-4.34,3.48-5.33,3.35-.87,4.1-3.35,6.46-5.33,1.24-.99,4.72-2.23,4.84-3.84.25-2.73-3.1-5.58-1.24-8.18.5-.74,3.11-1.61,3.97-1.98.75-.37,1.74-.12,2.49-.87.5-.5,0-1.24.5-1.86,2.48-2.73,4.1-1.86,4.84,1.36.37,1.61,2.36,6.07,5.09,5.58.37-2.6,2.48-1.49,1.99.74.37.12.87,0,1.12.12,1.37.37,4.72-1.49,5.71-2.73.25-.25,1.12-2.48,1.12-2.85.12-1.61-.87-1.36-1.12-2.6s-.99-1.86.5-2.85c1.62-.99,1.74.74,2.73.62,3.35-.5.13-2.73-.25-4.46-.62-2.85,2.61-2.97,3.98-3.97,2.61-1.98,2.11-3.35,4.22,0,1.61,2.36,2.11,2.6,4.47,1.24,1.62-.99,4.1-2.11,4.85-3.97,0,0-.13,0-.13.12.62-3.22,3.98-1.12,5.22-2.85,1.86-.62,2.73,2.6,5.22,1.86.12-1.49,0-3.1.12-4.71,2.61.37,1.74-2.85,1.86-4.59,2.24.13,1.24-4.21,1.37-5.82,2.86.12,5.47,2.35,7.7,3.59,1.37.74,2.98.13,4.72.62,1.24.37,2.11,1.24,3.23,1.98,2.11,1.36,4.22,1.61,6.46,2.23.99.25,1.49,1.61,3.1.99.62-.25,1.24-1.98,1.86-2.35,1.12-.74,2.11-.74,2.98-1.61.62-.62.75-2.11,1.62-2.35,1.99-.62,4.47,3.22,6.09,4.21,3.23,1.98,11.55,1.98,15.03,0,1.12-.62,1.74-1.24,2.98-1.86.5-.25,1.86-1.12,2.36-1.24,1.99-.74,5.34-.12,4.47,2.85-1.12.5-.62,1.36.13,2.11,3.04.24,5.96.36,8.47-.57"/>
      <path class="st1" d="M714.63,417.8c-.37-.5-.99-.5-3.11-.99-2.61-.5-4.22-1.86-6.83-2.11-4.35-.37-9.32,1.86-13.17-1.12-1.37-.99-1.24-3.1-2.73-3.97-3.85-2.11-10.06.37-13.66.87-2.86.37-5.34-.37-7.7-1.12-2.49-.74-5.96-2.11-8.57-1.86-5.22.5-10.68.5-16.03.5-2.24,0-6.34.62-8.32-.37-3.48-1.61-4.1-5.2-6.46-8.18-.75-.87-2.11-2.73-2.86-3.35-.62-.5-1.37.12-1.86-.37-.75-.62-.99-1.61-1.86-2.23-2.11-1.49-4.85-1.49-7.2-2.48l-.21-.58c-.75-2.23-1.9-3.63-2.52-5.86-.62-2.36-.75-5.08-1.61-7.44-.37-.87-1.49-.87-1.62-1.86-.12-.87.87-.87.99-1.49.25-1.49.13-2.48-.75-3.72-.62-.87-1.49,0-2.11-1.12-.25-.37,0-1.36,0-1.86,0-1.12,0-2.11.62-3.1,1.62,0,3.35-.5,4.97-.62,3.98-.5,3.11-.74,3.48-4.46.12-.74.25-1.74.62-2.48.25-.62,1.49-1.73,1.62-1.98.12-.62-.13-1.98-.13-2.85-.12-1.49-.25-3.1-.37-4.71-4.1-.5-2.24-4.09-2.86-6.45-.5-1.73-1.49-4.09-2.24-5.82-2.11-.37-4.1-2.35-1.62-4.09-1.83-2.55-.55-7.36-2.72-9.17h.01c1.99-1.36,5.69.25,8.17.12.99-2.11,4.72-2.11,5.96-.25,1.37,1.98-.75,3.1-1.12,4.96,2.86,1.12,3.98-.5,6.34-.99,1.99-.5,5.59-.12,7.45.37.12,1.12.75,2.11,1.37,2.97.25.25.37,1.12.62,1.24.62.5,1.24.25,1.86.74,1.49,1.24.75.62,1.62,2.23.5.87.75,2.36,1.49,3.22,3.11,3.35,9.69,4.83,14.28,2.23,1.99-1.12,2.86-2.35,3.48.74.5,2.48.5,3.47,1.61,5.82.87,1.74,1.37,3.97,1.62,5.82v.12c.25,2.11-.25,6.57,1.24,7.81,2.11,1.98,3.35-.62,5.09-1.12,2.11-.62,5.47,1.12,7.58,1.36,3.85.5,10.93-.13,10.68,4.71,1.74.12,3.85-.37,4.97.62.62.5.75,1.49,1.12,2.11.37.5,1.24,1.12,1.49,1.61,1.24,1.98,2.11,3.1,3.6,4.83,1.49,1.86,3.1,3.84,3.97,5.82.75,1.61.5,3.22,1.62,4.71,1.12,1.49,2.98,1.86,4.84,1.98,2.24.13,3.73.37,5.84.74,1.24.25,1.99.37,2.36.74.62.5.62,1.24.62,3.1-2.36.12-12.79,1.98-11.68,5.33,4.97-.37,5.47,7.81,6.46,11.28.62,2.36,0,4.96.5,7.44.13.37-.62.37-.25,1.12.37.87,1.24.12,1.62.87.25.5.37,1.12.37,1.74v.25Z"/>
      <path class="st2" d="M764.32,467.86c2.86-.99,2.98-3.72,2.98-7.56,0-2.73-.75-4.21-1.37-6.82-.62-2.11-1.99-4.34-2.24-6.44-.25,0-.37-.13-.5-.13,1.37-2.48,4.97-4.34,5.59-6.94.87-3.59-.62-6.57,1.86-9.67,1.37-1.61,1.86-1.73,1.86-4.46.13-2.11-.12-4.09.37-6.07.25-1.12.75-1.61.99-2.97.25-1.86-.25-3.35.75-5.08.5-.87,1.62-1.36,2.11-2.23,1.49-2.35.5-5.08,1.74-7.44,1.61-2.97,4.59-1.74,7.2-1.86,1.74-.12,2.86-.74,4.72-.25,1.24.25,2.73.99,3.85,1.49,2.61,1.12,4.6,1.74,7.7,1.61.25-.25.5-.5.75-.87,1.99-2.35,5.59-6.07,5.34-8.67,3.85.62,3.85-5.2,4.22-7.81,3.1-.25,6.09-.5,9.07-.62,10.56-.62,21.61-1.49,32.42-1.86q3.73-.12,6.21-2.35c1.86-1.61,3.97-2.85,5.84-3.97,2.48-1.49,4.35-2.35,7.33-2.85,2.36-.37,4.22-1.61,3.35-4.34-3.85-.13-2.61-5.45-3.23-7.81-.12-.74-.75-1.49-.99-2.23-.25-.87.13-1.73-.25-2.6-.12-.37-.37-.74-.62-.99-.5-.5-1.24-.87-2.11-1.24-2.48-.99-5.47-.87-6.21-3.96-.75-2.73.12-4.34-2.98-5.82-2.36-1.24-5.09-.87-7.83-1.12-2.24-.25-4.35-1.49-6.34-1.86-2.11-.5-4.72-.25-6.71-.37-1.24,0-2.73,0-3.98.12-1.49.25-1.99.87-3.23,1.24-2.24.62-4.85.37-7.2.37-1.74,0-4.85-.99-6.34-.25.12.5-.25,1.36-.25,1.61-2.24-.37-3.85-2.73-5.84-3.84-1.74-.87-7.58-2.85-9.19-.25-.62,1.12.5,3.35,0,4.59-.37.87-1.99,2.23-2.73,2.85-3.23,2.73-5.09,2.48-9.32,2.73-.12,2.85.37,5.82-.99,8.3-1.37,2.48-2.48,6.2-4.97,8.06-1.99,1.36-5.84,1.61-8.2,2.35-3.73,1.12-6.83-1.61-10.06,1.36-2.11,1.86-2.98,4.96-5.34,6.44-1.24.74-1.12-.25-2.11.99-.62.74-.62,2.11-1.12,2.97-1.86,2.85-4.72,2.11-7.83,2.11-4.85,0-10.31-.74-15.03,0-.87.12-1.74.62-2.73.74-.87.25-1.86,0-2.86.25-2.24.5-3.6,2.23-4.6,4.21-1.62-.37-2.11-1.74-3.85-2.11-1.12-.25-2.98-.38-3.97.24l-.26.14c.38.5.38,1.28.38,2.85-2.36.12-12.79,1.98-11.68,5.33,4.97-.37,5.47,7.81,6.46,11.28.62,2.35,0,4.96.5,7.44.13.37-.62.37-.25,1.12.37.87,1.24.12,1.62.87.25.5.36.73.36,1.35v.63c.26.5.26,1.12.88,2.73.87,2.35,3.85,3.47,6.34,3.84.62,1.74,2.98,2.97,4.84,2.6.5,3.22.99,2.11,2.86,3.84.62.62,1.49,2.11,1.99,3.47l.5.5c1.12.87.62,6.32.37,7.68-.5,3.35-3.23,5.58-4.22,8.55-1.74,5.7,2.98,7.93,5.34,11.77,1.38,2.18,1.45,10.05,1.45,10.05v.32h0c1.9-2.61,3.51-7.88,6.87-7.4-.37-3.1,2.86-1.86,4.1-.62,1.37,1.36,1.74,3.84,3.48,4.46,2.24.87,4.72-1.36,6.96-1.61,1.74-.12,3.6.13,5.34,0,.87-.12,1.74-.25,2.36-.5"/>
      <path class="st1" d="M764.07,467.49c.14.1.28.19.42.3,1.7,1.19,3.22,2.71,3.68,4.66.37,2.48-1.12,4.83-.62,7.19.25.99.99,1.49,1.37,2.48.5,1.12.12,2.23.5,3.35.5,1.61.99,1.12,1.74,2.23.25.62.37,1.24.37,1.86h.66c3.23.12,7.17.62,9.78-.37,1.61-.62,2.73-2.6,4.85-1.74,1.24.62,2.36,2.85,2.73,3.97,3.1.25,3.48-.13,5.47-2.11,1.99-2.11,3.35-1.24,5.71-2.11.99-.25,1.99-2.11,3.23-2.6,1.49-.5,3.23-.12,4.72-.25,2.61-.25,4.22-1.74,6.96-1.61,1.37-2.97,3.48-4.83,5.09-7.44,1.62-2.6,4.22-5.33,4.6-8.3.37-2.73.62-5.82.75-8.55,0-1.36,0-2.97-1.37-3.22-1.49-.37-2.11.99-1.86,2.35-2.36.13-2.86-1.98-4.22-3.22-.25-.25-1.61-.62-2.11-.99-2.61-1.98-3.48-6.44-5.09-9.17-.5-.74-1.86-3.59-2.24-3.84-.87-.74-1.74-.62-2.98-.74-.25-4.09-.37-7.31-1.12-11.15-.37-2.48-.12-4.96-.5-7.44,0-.62-.99-.37-.99-1.12,0-.87.87-1.61.99-2.35.25-1.61-.25-3.1-.25-4.58,0-1.36.62-2.73.5-4.46-.12-1.74-.12-5.7-1.86-6.44l-.25.12c-.25.37-.5.62-.75.87-3.1.12-5.09-.5-7.7-1.61-1.12-.5-2.61-1.24-3.85-1.49-1.86-.5-2.98.13-4.72.25-2.61.12-5.59-1.12-7.2,1.86-1.24,2.35-.25,5.08-1.74,7.44-.5.87-1.62,1.36-2.11,2.23-.99,1.74-.5,3.22-.75,5.08-.25,1.36-.75,1.86-.99,2.97-.5,1.98-.25,3.97-.37,6.07,0,2.73-.5,2.85-1.86,4.46-2.48,3.1-.99,6.07-1.86,9.67-.62,2.6-4.22,4.46-5.59,6.94.13,0,.25.13.5.13.25,2.11,1.62,4.34,2.24,6.44.62,2.6,1.37,4.09,1.37,6.82,0,3.84.04,4.71-2.82,5.7,0-.01-.66.53-.41,1.49Z"/>
      <path class="st4" d="M635.13,456.21c.15,0,.31-.05.46-.07.1-.04.19-.05.29-.05,1.86-.62,3.85-3.1,4.72-4.58.62-1.24.75-3.35,1.49-4.34.87-1.12,2.73-1.49,3.73-2.85,1.37-1.86,2.11-4.83,3.73-5.95,1.12-.87,1.99-.5,3.48-.62.5,0,1.74-.5,1.99-.5.62,0,1.99.74,2.36.74,2.49-.25,4.1-.99,7.21-.74,2.36.25,4.97-.12,7.2.25,1.62.25.99,1.24,2.48.5.75-.37,1.49-2.35,2.11-2.97,1.49-1.61,3.48-5.08,5.47-5.82,1.49-.5,3.11.5,4.47.25,2.24-.37,1.24-1.61,3.48.62.75.74,6.09,7.44,5.09,2.97.87,0,3.23-.87,3.73-.74,1.74.37,1.49,1.73,2.61,2.97,4.6,4.96,4.97-3.59,7.83-4.83,1.74-.74,4.1.25,5.96-.25,1.12-.37,2.48-2.48,3.48-2.6,2.86-.37,1.37,7.06,1.86,9.29,2.24.62,1.24-1.49,2.61-2.11,1.62-.62,1.62.5,2.98.99,1.74.62,4.35-1.12,5.59-1.12v-.37c-.5-1.36-1.37-2.85-1.99-3.47-1.86-1.74-2.36-.62-2.86-3.84-1.86.37-4.22-.87-4.84-2.6-2.49-.37-5.47-1.49-6.34-3.84-.62-1.61-.62-2.23-.87-2.73-.37-.5-.99-.5-3.11-.99-2.61-.5-4.22-1.86-6.83-2.11-4.35-.37-9.32,1.86-13.17-1.12-1.37-.99-1.24-3.1-2.73-3.97-3.85-2.11-10.06.37-13.66.87-2.86.37-5.34-.37-7.7-1.12-2.49-.74-5.96-2.11-8.57-1.86-5.22.5-10.68.5-16.03.5-2.24,0-6.34.62-8.32-.37-3.48-1.61-4.1-5.2-6.46-8.18-.75-.87-2.11-2.73-2.86-3.35-.62-.5-1.37.12-1.86-.37-.75-.62-.99-1.61-1.86-2.23-2.11-1.49-4.85-1.49-7.2-2.48l.25.74c-2.49.37-4.47.74-6.71,1.36-2.86.74-6.83-.12-9.32,1.61-3.85,2.73.5,7.06.75,10.53.25,2.35.13,4.49,0,6.84v.36c.21.03.41.11.62.11.25,2.11,4.35,1.86,5.96,2.85,3.85,2.11,7.83,4.46,10.19,7.56,2.36,3.1,4.47,4.21,5.34,8.3.5,2.23,1.37,2.85,2.11,4.46.87,1.61.5,4.09,2.86,4.59.12,2.6,1.74,2.97,2.86,5.08.62,1.12.75,3.1,1.37,4.34,1.1,2.58,3.79,3.94,5.06,6.37"/>
      <path class="st1" d="M641.47,112.7c.99,3.22-.5,2.97-2.61,4.21-1.49.87-2.73,2.6-3.48,4.34-.75,1.86-.87,5.2-.5,7.19.5,2.23,2.36,3.59,2.98,5.58.87,2.73-2.24,5.08-3.73,7.19-1.62,2.35-1.74,3.72-4.35,4.34-5.96,1.36-13.17,5.7-15.9,11.52-.87,1.98-.12,4.46-.99,6.32-2.11,3.97-7.7,5.33-8.82,10.29-.99,4.34-2.36,9.79-6.83,11.77-2.36.99-5.34.99-7.83,2.11-3.23,1.49-1.61,3.35-3.73,5.58-1.62,1.61-3.73.37-5.71,1.61-1.49.87-2.73,2.73-3.98,3.96-2.36,2.48-3.1,4.34-6.21,5.82-2.24,1.12-2.98,1.86-1.61,4.34.75,1.24,3.23,4.71,4.59,5.33,1.86.99,4.47-.37,6.46.37,2.11.87,2.24,3.22,3.6,4.71,2.11,2.48,3.6,2.6,3.35,6.07-1.24.5-2.98,2.48-2.61,3.84.37,1.61,3.85,2.11,4.85,2.85,3.73,2.97,3.23,7.07,7.95,8.92.5,1.86,2.48,3.22,2.98,5.08.5,1.74,0,4.34,0,6.07-4.72,1.73-6.96,5.2-9.07,9.67-1.74-.37-3.48-3.1-5.22-3.1-2.73-.12-2.48,2.6-.75,3.97.99.74,1.74,0,2.61,1.12.37.37.62,2.97.62,3.47-.13,2.6-2.11,3.22-3.23,5.45-2.11,4.34-1.24,10.41-.62,15,.46,3.14,1.48,6.38.78,9.22l-.91.45c-1.61-.37-3.35,0-5.09-.25-1.62-.25-2.86-1.12-4.22-1.61-.12.25,0,.5-.12.74-3.48.12-3.73,0-3.73-3.22,0-2.73-.25-2.85-2.61-4.34-1.62-.99-3.6-2.48-5.47-2.85-2.73-.62-5.34.62-7.95-.87-.99-3.22,6.71-4.46,6.58-8.43-3.23-.25-7.45,1.24-10.43-.25-2.24-1.12-1.62-2.11-3.35-3.84-1.49-1.49-2.36-1.49-2.24-4.21-.99,0-.62-.62-.99-1.12-2.98,1.36-2.24,2.48-3.35,5.2-.25.62-1.37,1.86-1.62,2.36-2.24,3.59-2.61,7.19-4.22,10.9h-.4c-.61-3.06-1.09-6.25-.97-9.29-1.49-.5-2.73-.25-4.22,0-1.12.12-1.12.62-2.48.5-1.24,0-2.36-1.24-3.48-1.24-.99,0-7.95,5.2-6.96.25-2.48-.99-1.12-6.2-1.86-8.55-2.11-.13-4.85-1.12-6.71-.87-2.11.25-2.73,2.23-5.09,1.61-3.6-.87-4.1-5.58-8.32-5.45-.47-.93-1.69-1.97-2.67-2.71v-.13c1.09-1.34,2.43-3.09,2.67-4.6.5-2.73-1.37-3.1-1.99-5.33-.62-2.48,0-4.96.25-7.19.12-.87-.37-2.6.25-3.22.87-.99,2.48-.12,3.48-.74,1.62-1.24.25-3.47.62-5.2.12-.37,1.24-2.35,1.61-2.85.37-.5,1.86-.5,2.11-1.12.5-.87-.5-1.61-.25-2.11.75-2.11,1.24-.99,2.98-2.48,1.37-1.12.62-2.35,2.86-3.22-.13-1.61.25-3.22.62-4.83.35-1.5.37-2.03.27-2.8l-.02-.3-.02-.16c-.04-.3-.14-.62-.22-1.08-.25-1.36.37-3.1-.25-4.34-.62-1.12-2.48-2.48-3.6-3.35-2.48-2.11-3.85-2.36-7.2-1.36-2.36.74-6.34.74-5.96-2.73,0,.5-2.86-1.36-3.11-1.61-.87-1.12-.75-2.48-.75-3.72,0-2.73.12-7.06,1.24-9.42.99-2.11,1.74-1.98,1.62-4.09-.13-1.36-.99-2.36-.75-3.84.12-.87.99-1.86,1.12-2.85.13-1.74-1.49-2.48-1.86-4.09-.75-2.6,0-6.69,0-9.29,0-3.35-.25-3.72-2.61-5.95-1.74-1.61-3.11-2.97-3.23-5.33-.13-1.24.25-2.11.5-3.22.12-.99-.25-2.35-.13-2.97.13-1.36.62-1.61,1.12-2.85.5-1.24.37-3.22.99-4.34.62-.99,1.86-1.12,2.48-1.98.87-1.12.75-2.85,1.12-4.09.75-2.85-.13-4.34-.37-7.19-1.12-.37-2.36-.74-3.6-.62-1.24-3.84-3.23-1.24-5.47-1.61-1.74-.25-2.86-1.98-3.97-3.22-1.12-1.24-2.86-3.1-3.6-4.58-.87-1.86-.62-4.09-3.48-4.21-.5-2.11,3.73-5.7,4.47-7.93.62-1.61,0-4.09.5-6.2.5-1.86,1.86-2.48,2.36-4.34.25-.74-.25-1.61,0-2.36.25-1.12.87-1.24,1.12-2.11.5-1.61.75-3.59,1.24-5.08.37-1.24.62-3.35,1.62-3.97.75-.5,3.73,0,4.72,0,.62-2.73,1.86-4.34,1.86-7.31v-.5h.12c2.86-.12,6.34-1.12,8.32,0,2.11,1.12,4.72,6.57,5.96,8.67,2.73,4.34,4.47,5.7,9.69,6.07,5.09.37,9.69-.25,14.54,1.24,3.48,1.12,6.71,2.48,10.31,3.1,3.35.5,6.33,2.35,9.69,3.1,2.73.5,5.47.5,8.32.5,3.6,0,7.21.5,10.31-.99,1.49-.74,3.97-2.11,2.36-3.97,1.61-.62,2.98-2.11,3.48-3.84.25-.87.25-1.98.5-2.98.37-1.12,1.12-1.98,1.12-3.35,2.86-.87,3.35,1.86,4.22,3.59.5.99-.5,2.11,1.37,1.86,1.24-.25,1.24-2.11,1.74-2.85,2.11-3.35,1.74-1.24,4.84.13,2.98,1.36,6.09.87,9.07.62.5,1.74.13,5.58,2.98,4.96.25-1.36,1-2.48,1.74-3.35.5-.13,1.12-.13,1.49,0,.37.99,1.49,1.49,2.73,1.36.62,2.73.5,5.45.62,8.18,2.11.12,2.98-7.44,4.6-8.92,3.48-3.59,3.35,4.83,3.48,6.82.5.25,1.37.37,1.86.25.12-.87.37-3.97,1.86-2.85,1.12.87-.37,3.22.62,4.21,1.99,1.86,5.59-1.98,7.45-1.73.87,2.35.99,4.34,1.12,6.82,1.62.5,2.48-.37,3.23-1.61.87.87.5,2.23.62,3.47.25.12.5,0,.75.12-.13.74.25,1.61.12,2.36,2.24.12,1.86-3.22,3.97-3.22,1.49.12,1.74,2.6,2.49,3.72.62-.12,1.49.25,2.11.12.13.99,0,2.11.13,3.1,2.48.62,2.73-2.48,4.72-2.36.75,2.73-2.73,3.22-2.11,5.82,1.99.5,3.85-2.35,5.09-.74,1.62,2.11-1.86,3.84-1.86,5.33.25,0,.5,0,.75.12Z"/>
      <path class="st4" d="M534.76,285.57c1.62-3.72,1.99-7.31,4.22-10.91.25-.5,1.37-1.73,1.62-2.35,1.08-2.64.42-3.77,3.08-5.08l.27-.12c.37.5,0,1.12.99,1.12-.13,2.73.75,2.73,2.24,4.21,1.74,1.74,1.12,2.73,3.35,3.84,2.98,1.49,7.2,0,10.43.25.13,3.97-7.58,5.21-6.58,8.43,2.61,1.49,5.22.25,7.95.87,1.86.37,3.85,1.86,5.47,2.85,2.36,1.49,2.61,1.61,2.61,4.34,0,3.22.25,3.35,3.73,3.22.12-.25,0-.5.12-.74,1.37.5,2.61,1.36,4.22,1.61,1.74.25,3.48-.12,5.09.25l.68.3c-.39,1.05-1.12,2.11-2.17,3.05-2.73,2.23-8.57,3.1-8.07,7.93.25,2.23,2.48,3.97,1.37,6.44-.87,1.98-3.85,4.21-5.09,6.07-3.73,5.45-6.46,11.15-9.44,17.1-2.36,4.83-8.82,7.31-14.16,8.43-1.24.25-2.61.12-3.73.87-1.86,1.24-2.48,4.59-4.22,6.07-1.86,1.61-4.1,1.73-6.46,1.73-1.49,0-4.97-.74-6.71-.12-.13,0-.37.12-.5.25l-2.48-1.86v-3.47c.62,0,1.24-.5,2.11-.37.13-.25,0-.5.13-.74,2.24-.37,1.12-3.22,1.49-4.83.5-1.98,1.49-3.22,1.61-5.33,3.35.37,5.47-.37,2.98-3.22-.62-.62-2.36-1.86-2.48-2.6-.12-.5.99-1.36,1.12-1.86.25-.87.12-1.61.25-2.48.37-2.48,1.37-4.46,2.61-6.94.87-1.86-.37-1.98,1.99-2.6,1.12-.37,2.86,0,3.97,0,.99.62,1.99,2.48,3.48,2.35.5-2.35,1.12-3.35,1.74-5.58.5-1.98.5-3.97.62-6.07,1.99-.74,1.37-2.85.5-4.09-.62-.74-1.99-.74-2.61-1.61-.25-.37-.5-2.35-.5-2.85-.48-3.11-2.36-4.96-5.06-6.64l-.35-.78c-.11-1.06-.25-2.17-.56-3.11-.46-1.5-.82-3.1-1.17-4.71l.3-.5Z"/>
      <path class="st6" d="M492.91,335.53c.93-1.62,1.62-2.97,1.73-5.23,1.86-.5,2.61-2.6,3.6-3.84,1.12-1.36,2.48-2.35,3.85-3.47,2.24-1.86,3.6-4.46,6.83-4.34.12-.87.25-2.97.99-3.59,1.24-.99.99.12,2.11,0,2.24-.37,3.48-.87,5.22-2.73,2.73-2.97,2.11-5.58,2.36-9.42,1.24.5,1.86,1.98,3.11,2.73,1.24.87,3.11,1.12,4.35,1.74,3.48,1.61,5.59.87,9.07.37.12-4.04.48-8.93.14-13.11h.24c2.73,1.7,4.62,3.53,5.09,6.67,0,.5.25,2.48.5,2.85.62.87,1.99.87,2.61,1.61.87,1.24,1.49,3.35-.5,4.09-.13,2.11-.13,4.09-.62,6.07-.62,2.23-1.24,3.22-1.74,5.58-1.49.12-2.48-1.74-3.48-2.35-1.12,0-2.86-.37-3.97,0-2.36.62-1.12.74-1.99,2.6-1.24,2.48-2.24,4.46-2.61,6.94-.13.87,0,1.61-.25,2.48-.13.5-1.24,1.36-1.12,1.86.13.74,1.86,1.98,2.48,2.6,2.49,2.85.37,3.59-2.98,3.22-.12,2.11-1.12,3.35-1.61,5.33-.37,1.61.75,4.46-1.49,4.83-.13.25,0,.5-.13.74-.87-.12-1.49.37-2.11.37v3.47l-.12.37c-.5,0-.99,0-1.37-.13-1.61-.5-2.24-1.98-4.47-1.86-.99-2.6-4.6-3.96-6.71-5.58-1.74-1.24-6.21-5.7-7.33-1.61-1.12.12-2.24.12-3.35,0-.25-.74,0-1.98-.25-2.6-.5-.99-1.37-.99-2.11-1.86-2.36-2.47-2.04-4.04-3.9-4.62l-.06-.19Z"/>
      <path class="st2" d="M492.98,335.4c.89-1.57,1.54-2.9,1.65-5.09,1.86-.5,2.61-2.6,3.6-3.84,1.12-1.36,2.48-2.36,3.85-3.47,2.24-1.86,3.6-4.46,6.83-4.34.12-.87.25-2.98.99-3.59,1.24-.99.99.12,2.11,0,2.24-.37,3.48-.87,5.22-2.73,2.73-2.97,2.11-5.58,2.36-9.42,1.24.5,1.86,1.98,3.11,2.73,1.24.87,3.11,1.12,4.35,1.74,3.48,1.61,5.59.87,9.07.37.12-4.09.5-9.05.12-13.26-.12-1.24-.25-2.6-.62-3.72-.5-1.61-.87-3.35-1.24-5.08-.62-3.1-1.12-6.32-.99-9.42-1.49-.5-2.73-.25-4.22,0-1.12.12-1.12.62-2.48.5-1.24,0-2.36-1.24-3.48-1.24-.99,0-7.95,5.2-6.96.25-2.49-.99-1.12-6.2-1.86-8.55-2.11-.13-4.85-1.12-6.71-.87-2.11.25-2.73,2.23-5.09,1.61-3.6-.87-4.1-5.58-8.32-5.45-.46-.93-1.69-1.96-2.66-2.7,0,0-.14.04-.2.1-.25.25-.37.5-.62.74-1.86,1.98-2.73,2.35-.37,4.58s2.98,2.73.5,5.2c-1.24,1.12-5.09,2.36-4.72,4.21,2.73,1.24,3.48,4.09,5.34,5.95,1.74,1.73,4.22,2.73,6.21,3.96,2.36,1.49,1.86,1.36,1.74,3.72,0,1.74.25,3.59-.5,5.08-.62,1.12-1.49,1.61-2.48,2.73-1.24,1.49-1.12,3.47-2.11,4.96-.62.87-2.11,2.11-2.86,2.73.5,3.47-1.49,3.84-3.23,5.95-1.24,1.49-2.36,6.57-4.47,6.82.25,1.36-.5,2.48-1.61,2.85,0,0-.05.05-.03.17.31,1.28-.91,2.65-.1,4.04.5.99,2.48,1.86,3.23,2.97,1.24,1.86,2.73,6.94,5.09,7.31-.12.5,0,1.12.13,1.49.87,0,1.61.12,2.11.25l.34-.23Z"/>
      <path class="st1" d="M481.84,318.79c.13.25.13.37.25.5.62,1.36-.87,2.85,0,4.34.5.99,2.48,1.86,3.23,2.97,1.24,1.86,2.73,6.94,5.09,7.31-.12.5,0,1.12.13,1.49.87,0,1.61.12,2.11.25,2.24.5,1.74,2.11,4.22,4.71.75.87,1.61.87,2.11,1.86.25.62,0,1.86.25,2.6,1.12.12,2.24.12,3.35,0,1.12-4.09,5.59.37,7.33,1.61,2.11,1.61,5.71,2.98,6.71,5.58,2.24-.13,2.86,1.36,4.47,1.86.37.12.87.12,1.37.12,1.12,0,2.11,0,2.36,1.12.12.12.12.25.12.37l-.14.19c-1.28,1.02-1.64,3.5-2.35,4.77-1.24,1.98-2.98,1.98-4.6,3.47-1.37,1.24-1.86,3.1-3.23,4.34-1.37,1.24-3.48,2.73-5.09,3.72-2.86,1.61-10.31,2.6-11.18-1.36-.5-2.11.62-5.08-.62-6.69-.99-1.36-5.22-3.47-6.83-4.09-1.86-.74-3.73-.87-5.47-2.23-2.24-1.74-2.73-3.97-4.1-6.57-1.12-2.23-2.48-4.46-4.47-6.07-1.74-1.36-3.11-1.61-3.85-4.21-.37-1.49-.25-3.22.13-4.71,2.36-1.49,6.21-2.97,7.95-5.08-.25-.13-.62-.13-.87-.25-.14-.02-.29-.05-.42-.07l-.2-.17c.13-1.49-.5-5.95-.99-7.06-.5-1.36-3.23-1.98-1.86-3.35.62-.62,2.98,0,3.73,0,.12-.25,0-.5.12-.74l1.24-.5Z"/>
      <path class="st4" d="M484.95,70.2v.12c0,2.97-1.24,4.59-1.86,7.31-.99,0-3.97-.5-4.72,0-.99.62-1.24,2.73-1.62,3.97-.5,1.49-.75,3.47-1.24,5.08-.25.87-.87.99-1.12,2.11-.25.74.25,1.61,0,2.35-.5,1.86-1.86,2.48-2.36,4.34-.5,2.11.13,4.59-.5,6.2-.75,2.23-4.97,5.82-4.47,7.93,2.86.13,2.61,2.36,3.48,4.21.75,1.49,2.48,3.35,3.6,4.58,1.12,1.24,2.24,2.97,3.97,3.22,2.24.37,4.22-2.23,5.47,1.61,1.24-.12,2.48.25,3.6.62.25,2.85,1.12,4.34.37,7.19-.37,1.24-.25,2.97-1.12,4.09-.62.87-1.86.99-2.48,1.98-.62,1.12-.5,3.1-.99,4.34-.5,1.24-.99,1.49-1.12,2.85-.12.62.25,1.98.13,2.97-.25,1.12-.62,1.98-.5,3.22.12,2.35,1.49,3.72,3.23,5.33,2.36,2.23,2.61,2.6,2.61,5.95,0,2.6-.75,6.69,0,9.29.37,1.61,1.99,2.36,1.86,4.09-.12.99-.99,1.98-1.12,2.85-.25,1.49.62,2.48.75,3.84.12,2.11-.62,1.98-1.62,4.09-1.12,2.35-1.24,6.69-1.24,9.42,0,1.24-.13,2.6.75,3.72.25.25,3.11,2.11,3.11,1.61-.37,3.47,3.6,3.47,5.96,2.73,3.35-.99,4.72-.74,7.2,1.36,1.12.87,2.98,2.23,3.6,3.35.62,1.24,0,2.97.25,4.34.13.62.25.99.25,1.36.13.87.13,1.36-.25,2.97-.37,1.61-.75,3.22-.62,4.83-2.24.87-1.49,2.11-2.86,3.22-1.74,1.49-2.24.37-2.98,2.48-.25.5.75,1.24.25,2.11-.25.62-1.74.62-2.11,1.12-.37.5-1.49,2.48-1.61,2.85-.37,1.74.99,3.97-.62,5.2-.99.62-2.61-.25-3.48.74-.62.62-.13,2.35-.25,3.22-.25,2.23-.87,4.71-.25,7.19.62,2.23,2.48,2.6,1.99,5.33-.25,1.61-1.74,3.47-2.86,4.83-.25.25-.37.5-.62.74-1.86,1.98-2.73,2.35-.37,4.58,2.36,2.23,2.98,2.73.5,5.2-1.24,1.12-5.09,2.35-4.72,4.21,2.73,1.24,3.48,4.09,5.34,5.95,1.74,1.73,4.22,2.73,6.21,3.96,2.36,1.49,1.86,1.36,1.74,3.72,0,1.74.25,3.59-.5,5.08-.62,1.12-1.49,1.61-2.48,2.73-1.24,1.49-1.12,3.47-2.11,4.96-.62.87-2.11,2.11-2.86,2.73.5,3.47-1.49,3.84-3.23,5.95-1.24,1.49-2.36,6.57-4.47,6.82.25,1.36,0,2.09-1.12,2.47l-.5.14c-.5.12-.99.25-1.62.12-.12.25,0,.5-.12.74-.75,0-3.11-.62-3.73,0-1.37,1.36,1.37,1.98,1.86,3.35.5,1.12,1.12,5.58.99,7.06-.24.17-.31.13-.31.13-4.7-.4-11.9,2.24-10.74,7.81.25,1.12,1.37,2.48,1.62,3.72.37,1.36.37,3.47,1.12,4.46,4.35-.13,2.98,2.35,5.09,4.09.12.12.25.25.5.37-.43.23-1.37,0-1.37,0h-.12c-1.99,0-4.6,3.97-4.97,5.58-.5,1.86,0,3.84-.99,5.58-.5.74-1.49.99-1.99,1.74-.87,1.12-.99,2.6-1.74,3.59-.75,1.12-1.99,1.86-2.73,2.97-1.24.13-2.24.37-3.1,1.12,0,0-.65.72-1.12.32.12-.19.25-.37.37-.57,1.86-2.73.75-2.85-2.24-4.21-2.82-1.24-2.26-.02-3.61.67-.21-.07-.22-.15-.22-.15.07-3.48-.5-6.95-.26-10.19-2.36-1.61-1.49-5.08-1.62-8.06-3.73.37-3.35-7.68-4.47-9.91-.7-1.29-1.63-1.36-2.35-2.29-.15-.09,0-.26,0-.26.66-.62,1.7-2.12,2.35-2.78.99-1.12,1.99-2.23,2.24-3.59,2.73-.74,3.48,3.22,6.21,2.73-.12-.62.13-1.36,0-1.98,1.99.74,8.82,3.59,5.34-1.61,1.62.87,6.96,1.36,6.96-1.24.5,1.98,2.73,1.12,3.35-.12.99-2.11-.87-1.24-1.99-2.85-.37-.62-.25-1.36-.62-1.86-.1-.1-.53-.72-.87-1.04l-.52-1.18c-.25-1.74,1.39-1.49,1.64-2.97-.62-.37-2.36-.87-2.86-1.49-.75-.87-.37-1.98-.87-2.6-.99-1.36-3.48-1.49-5.34-.5-1.99.99-2.61,2.48-5.09,2.73-2.98.25-2.86-.74-4.22-2.73-1.37-1.86-2.61-1.98-1.37-4.34.5-.99,1.49-.87,1.86-2.11.37-1.12-.37-2.48-.5-3.35-.75-2.73-2.24-8.18,1.86-9.29.25-3.59.5-6.57,2.98-9.05,1.37-1.49,3.11-.37,1.12-2.6-.87-.99-1.62-1.24-2.48-.99-.15-.05-.13-.13-.13-.13,0-3.84-.37-7.06.62-10.78.5-2.11.5-3.84.75-6.07.37-3.22-.25-6.2,0-9.29-1.62-.5-3.97.62-5.34-.5-.37-.25-.5-2.11-.99-2.73-.5-.74-1.62-1.12-2.36-1.86-1.12-1.12-2.61-2.6-3.35-3.84-.87-1.49-.37-3.72-2.73-3.97-.25-.99-.12-2.23-.87-3.1-.99-1.12-1.74-.25-2.86-.99-1.24-.99-2.73-3.97-2.73-5.7-1.12-.62-.37-1.61-1.12-2.35-.13-.12-2.24-.87-2.61-.99-2.11-.87-3.11-1.12-5.59-1.24-.12-2.11-.75-3.84-.87-5.82-.13-1.24.62-1.98.5-3.22-.25-1.98-.62-1.36-1.62-1.86l-1.99-.5c-.75-.12-1.62-.5-2.61-.37-2.98.62-1.24,3.97-3.73,4.83-4.35,1.61-1.37-8.43-1.37-10.41,0-2.35.62-5.08-2.73-4.34-2.11.5-3.48,3.1-4.1,4.83-.37.13-.87.13-1.24,0-.12-1.24-.87-2.23-1.12-3.47-.25-1.12.37-2.6,0-3.72-.25-.99-1.74-4.58-2.61-5.33-4.72-4.21-11.8,6.69-15.28,8.43-1.12.5-2.73.25-3.73.74-.87.5-.99,1.49-1.62,2.36-1.61,2.23-2.36,4.21-4.6,6.2-1.49,1.36-3.35,3.1-4.1,4.83-1.12,2.48-.62,5.58-.75,8.43-2.9.13-5.32-.46-8.18-.5l-.53-.36c-.11-.11-.24-.2-.36-.26-1.52-1.04-3.47-.46-5.24-.89l-.12-.35c-.2-2.12-1.45-3.8-1.09-6.07.62-3.35,1.86-6.2,1.62-9.91-.37-3.59-1.37-6.69-1.37-10.41,0-1.98.37-6.07-2.61-5.7.5-.87-.13-.74.99-1.12.12-2.73.87-5.2,1.12-7.93.25-2.6-.37-5.08-.5-7.44,1.74-.13,3.6,2.6,5.09,1.73.87-.62.62-3.96.75-5.08.37-3.59,2.61-8.3-2.36-9.42,0-1.24-.12-2.73,0-3.97.13-1.61,1.49-2.97,1.62-4.21.12-1.61-1.24-3.59-1.62-5.33-.25-1.24-.75-2.48-.62-3.72-.75.12-1.62-.25-2.36-.13-.87-4.96,7.21-5.45,6.09-9.29-2.36.25-1.49-1.98-1.62-3.47-.25-2.36-.12-1.98-1.86-3.22-.5-.37-1.62-.12-2.24-.5-.25-.13.25-1.12,0-1.36-.37-.37-.99,0-1.24-.25-.99-.99-2.11-1.73-2.61-2.97-.87-2.23.25-4.34-1.74-6.32-1.12-.99-2.24-1.24-3.97-1.61-2.98-.62-5.96-1.49-6.58-4.83-.62-3.22.25-5.33-2.86-7.68-1.99-1.49-3.97-2.48-3.85-5.33-1.99-.37-.87-4.83-1.12-6.44-.5,0-1.12-.25-1.49-.12,0-1.24.37-2.73.99-3.47-.25-1.12.25-2.6.12-3.47-.25-.99-1.49-2.97-1.99-3.97-.87-1.73-1.74-3.35-2.36-5.33-.25-1.12-.75-5.58-1.49-6.07-.99-.87-4.72,0-6.09-.13-.75-2.6-2.36-4.71-2.73-7.44-.37-2.23.62-5.82-2.36-6.44,0-.87.25-1.74.5-2.6,1.49-.13,2.98,0,4.47-.13.62-.99,1.49-1.12,2.24-1.98.62-.87.75-1.98,1.12-2.97,1.62-.99,2.73-2.97,3.11-4.83.12-.99-.25-2.23,0-3.22.25-1.24,1.37-1.86,1.86-2.97,1.62-3.84-.37-9.67.5-13.88.75-3.47,3.23-7.31,3.73-10.91.5-3.59-1.37-7.19-1.37-10.9,0,0,.17-.15.36,0,.39.21.7.41,1.01.62,2.86,1.98,3.48,5.95,5.09,8.92,2.61,4.71,4.22,3.22,8.82,4.83,1.12,3.84.13,5.33,3.73,7.81,2.61,1.86,5.96,2.85,9.19,2.48,3.35-.37,5.96-1.73,9.69-.87,4.22.99,3.6,3.1,5.96,5.7,4.22,4.71,13.91,2.6,19.75,4.71,6.34,2.36,13.54,4.59,15.65,11.65.5,0,.99.12,1.49,0-.75-7.06,4.22,1.98,4.85,2.48,2.24,1.98,8.82,2.73,11.68,3.22,8.2,1.74,16.77,1.86,25.22,1.86,3.6,0,6.96-.25,10.19,1.12,3.35,1.49,6.34,3.97,9.56,5.82,3.23,1.86,7.45,3.59,10.81,4.34.5.1,1.01.12,1.58.12l.29.36Z"/>
      <path class="st1" d="M466.97,322.06c.35.34,1.1,1.46,1.2,1.56.37.5.25,1.24.62,1.86,1.12,1.61,2.98.74,1.99,2.85-.62,1.24-2.86,2.11-3.35.12,0,2.6-5.34,2.11-6.96,1.24,3.48,5.21-3.35,2.36-5.34,1.61.13.62-.12,1.36,0,1.98-2.73.5-3.48-3.47-6.21-2.73-.25,1.36-1.24,2.48-2.24,3.59-.61.61-1.54,1.96-2.21,2.63,0,0-.47.15-.66-.51-.24-.71-.42-1.66-.61-2.13-.75-2.11-2.86-4.34-3.11-6.32-1.24-.25-3.85-2.85-3.73-4.21-1.74-2.35-1.99-4.71-2.36-7.81-2.36.12-5.59-.74-5.34-3.72-1.61-.87-3.1-1.74-4.97-2.48-1.62-.62-3.97-.87-5.22-1.74-.87-.62-.87-1.73-1.62-2.35-.75-.62-2.11-.99-2.73-1.61-1.29-1.29-.92-4.56-2.96-4.61,0,0-.43.16-.55-.2-.22-.83-.52-1.39-.84-1.92,0,0-.11-.23.06-.36,1.34-1.03,3.11-1.63,4.53-2.7,1.99-1.49,3.48-3.84,4.85-5.82,3.6-.25,6.71-1.73,10.19-2.23,2.36-.37,4.85.5,6.96.74,2.98.37,4.35-1.24,7.2-1.49,2.61-.25,4.6-.12,6.96-1.12.13-.37.13-.74.13-.99.99-.37,1.99-.99,2.86-1.12.87-.25,1.61,0,2.48.99,1.99,2.23.25,1.12-1.12,2.6-2.48,2.48-2.73,5.45-2.98,9.05-4.1,1.12-2.61,6.57-1.86,9.29.13.87.87,2.23.5,3.35-.37,1.24-1.37,1.12-1.86,2.11-1.24,2.35,0,2.48,1.37,4.34,1.37,1.98,1.24,2.97,4.22,2.73,2.48-.25,3.1-1.74,5.09-2.73,1.86-.99,4.35-.87,5.34.5.5.62.13,1.73.87,2.6.5.62,2.24,1.12,2.86,1.49-.25,1.49-1.86,1.74-1.61,3.47l.16.19Z"/>
      <path class="st2" d="M420.23,217.17c-.75-.12-1.62-.5-2.61-.37-2.98.62-1.24,3.97-3.73,4.83-4.35,1.61-1.37-8.43-1.37-10.41,0-2.35.62-5.08-2.73-4.34-2.11.5-3.48,3.1-4.1,4.83-.37.12-.87.12-1.24,0-.12-1.24-.87-2.23-1.12-3.47-.25-1.12.37-2.6,0-3.72-.25-.99-1.74-4.58-2.61-5.33-4.72-4.21-11.8,6.69-15.28,8.43-1.12.5-2.73.25-3.73.74-.87.5-.99,1.49-1.62,2.36-1.61,2.23-2.36,4.21-4.6,6.2-1.49,1.36-3.35,3.1-4.1,4.83-1.12,2.48-.62,5.58-.75,8.43-2.87.13-5.28-.44-8.11-.5,0,0-.31.01-.17.21,1.08,1.49,1.25,3.69,2.31,4.98,1.99,2.23,4.22,3.1,6.46,4.58,1.49.99,3.11,4.71,5.34,4.71.62,4.46,4.47,4.21,5.96,6.69,1.12,1.98-.62,2.73-.87,3.97-.25,1.74.5,3.22.87,4.83,2.56-.34,2.42,1.41,2.37,3.21,0,0-.07.42.39.71.98.24,2.25.5,2.71,1.18.5.74-.13,2.23.62,3.22,1.24,1.61,3.73,2.11,4.47,3.72.75,1.49,0,3.47.99,5.08.5.87,1.37,1.98,1.86,2.6.99,1.24,3.23,2.97,3.73,4.59.25.87-.13,1.86.37,2.85.75,1.74,1.86,1.36,3.11,2.48,1.37,1.12,2.61,3.1,3.73,4.34,1.14,1.25,1.96,2.08,2.67,3.07,0,0,.21.24.56,0,1.32-.94,2.99-1.55,4.36-2.57,1.99-1.49,3.48-3.84,4.85-5.82,3.6-.25,6.71-1.74,10.19-2.23,2.36-.37,4.85.5,6.96.74,2.98.37,4.35-1.24,7.2-1.49,2.61-.25,4.6-.13,6.96-1.12.13-.37.13-.74.13-.99.84-.32,1.69-.82,2.46-1.03l.26-.68c-.02-3.64-.34-6.74.62-10.31.5-2.11.5-3.84.75-6.07.37-3.22-.25-6.2,0-9.29-1.62-.5-3.98.62-5.34-.5-.37-.25-.5-2.11-.99-2.73-.5-.74-1.62-1.12-2.36-1.86-1.12-1.12-2.61-2.6-3.35-3.84-.87-1.49-.37-3.72-2.73-3.97-.25-.99-.12-2.23-.87-3.1-.99-1.12-1.74-.25-2.86-.99-1.24-.99-2.73-3.97-2.73-5.7-1.12-.62-.37-1.61-1.12-2.36-.12-.12-2.24-.87-2.61-.99-2.11-.87-3.11-1.12-5.59-1.24-.13-2.11-.75-3.84-.87-5.82-.12-1.24.62-1.98.5-3.22-.25-1.98-.62-1.36-1.61-1.86.01-.01-1.68-.58-1.98-.51Z"/>
      <path class="st1" d="M451.16,417.43c1.39.53,2.86.25,4.35.5,2.73.37,1.37.25,2.86-1.98,1.37-2.11,2.86-.74,4.6-2.11,1.49-1.24,1.24-3.47,1.74-4.96.75-1.86,2.24-3.22,3.23-4.83,1.37-2.23,1.86-3.84,4.22-3.47.99.25,1.86.99,3.1,1.12,1.12.12,2.36-.13,3.48,0,1.99.25,3.73,2.23,5.34,2.11-.12-2.35,4.72-1.12,6.46-1.24,2.36-.25,3.23-1.12,5.59-1.36,4.6-.37,11.8,1.74,15.28-1.61,4.97-4.83,7.95-14.62,3.6-20.57-1.37,1.49-2.36,1.24-4.1.87-.37-.13-.5-.74-.99-.87-.62-.12-1.49,0-2.11,0-.99-.12-1.86-.12-2.98-.37-3.85-.74-6.96-3.59-10.56-4.21-.62-1.12-.37-.74-1.12-1.36-.12-.87-.37-1.49-.62-2.35-1.12-.37-4.6-3.72-4.6-4.58-.37,0-.87-.13-1.24-.13,0-1.86-1.86-1.36-3.23-1.36-.13-.37-.13-.87-.13-1.24-.12-.12-.62,0-.75-.12.25-1.74-.12-5.33-2.36-4.83-.13-.37-.13-.62-.13-.99-2.81.24-2.97-3.8-3.19-6.05-.23-.64-1.4-.4-1.4-.4h-.12c-1.99,0-4.6,3.96-4.97,5.58-.5,1.86,0,3.84-.99,5.58-.5.74-1.49.99-1.99,1.74-.87,1.12-.99,2.6-1.74,3.59-.75,1.12-1.99,1.86-2.73,2.97-1.24.13-2.24.37-3.11,1.12,0,0-.96.07-1.09.28-1.42,2.13-3.06,4.02-3.75,6.53-.5,1.86.25,3.96-.25,5.82-.37,1.49-1.24,2.48-1.62,3.84-.25.99,0,2.23-.25,3.22-.5,2.35-.99,4.34-.87,6.94.12.62.62,1.24.62,2.11,0,1.24-.25,2.85-.25,4.21.13,1.49.5,4.09,0,5.58-.37,1.24-1.24.74-1.49,2.11-.12.74.37,1.49.75,1.98-.5.99-.62,1.98-1.12,2.73,0,0,.3.37.62.5Z"/>
      <path class="st6" d="M452.03,368.11s.5,0,.75-.12c1.99-.62.99-2.23,4.1-.87,2.98,1.36,4.1,1.49,2.24,4.21-1.49,2.35-3.35,4.34-4.1,7.06-.5,1.86.25,3.97-.25,5.82-.37,1.49-1.24,2.48-1.62,3.84-.25.99,0,2.23-.25,3.22-.5,2.35-.99,4.34-.87,6.94.12.62.62,1.24.62,2.11,0,1.24-.25,2.85-.25,4.21.13,1.49.5,4.09,0,5.58-.37,1.24-1.24.74-1.49,2.11-.13.74.37,1.49.75,1.98-.5.99-.62,1.98-1.12,2.73l-.34.46c-.45-.02-.91-.04-1.4.04-3.1,5.82-6.71,10.29-13.66,10.41-2.86,0-5.72-.25-8.57-.5-.62-.12-1.24-.12-1.86-.25l-.62-.5c-.12-4.34-.5-8.18-.25-12.52,3.23.74,1.37-1.61,1.86-3.22.5-1.24,2.11-1.49,2.86-2.85-.13-.25-.37-.74-.5-1.12-2.48-.74-1.99-2.11-1.86-4.34.11-1.38.57-3.74-.53-4.41v-.31c.41-.3.81-.63,1.16-.98.62-.5,2.11-2.36,2.36-2.97.5-1.24.25-2.23.62-3.47.37-1.24,1.86-2.11,2.36-3.22.37-.99.5-1.98.75-2.97.31-1.36.89-2.99,1-4.51l.12-.48c.11-.11.19-.22.25-.34,1.49-2.35-.12-7.56-.75-9.67-.25-.74-.5-1.36-.62-1.98-.01-.09-.04-.16-.05-.25l.17-.26c.67-.45.89-1.35,1.12-2.34,1.61.12,4.22,0,5.59-.74,1.74-1.12,1.49-3.59,4.22-2.97,2.89.69,5.13,6.22,7.74,7.27l.34.16Z"/>
      <path class="st2" d="M432.94,366.79c.75-.42.98-1.35,1.21-2.4,1.61.12,4.22,0,5.59-.74,1.74-1.12,1.49-3.59,4.22-2.97,3.1.74,5.47,7.06,8.32,7.44.25.12.5,0,.75,0v-.12c.12-3.59-.5-7.19-.25-10.53-2.36-1.61-1.49-5.08-1.62-8.06-3.73.37-3.35-7.68-4.47-9.91-.75-1.36-1.74-1.36-2.48-2.48-.13,0-.13-.12-.13-.12-.37-.62-.62-2.11-.87-2.73-.75-2.11-2.86-4.34-3.11-6.32-1.24-.25-3.85-2.85-3.73-4.21-1.74-2.36-1.99-4.71-2.36-7.81-2.36.12-5.59-.74-5.34-3.72-1.61-.87-3.1-1.74-4.97-2.48-1.61-.62-3.97-.87-5.22-1.74-.87-.62-.87-1.73-1.62-2.35-.75-.62-2.11-.99-2.73-1.61-1.37-1.36-.87-4.96-3.35-4.58v.12c.5,1.49,1.12,4.71,2.36,4.96.13,1.98-.62,6.57,1.37,7.44.75,2.85,1.61,5.7,3.23,8.3.75,1.12,2.36,2.36,2.73,3.97.37,1.86-.37,3.84-.5,5.7-.25,3.35-.62,21.31,3.48,21.07.13,2.85,2.61,2.85,4.6,3.47,3.23.99,4.22,6.32,4.35,9.29,0,1.15.17,2.13.38,3.07l.15.07Z"/>
      <path class="st1" d="M384.95,263.52c.99.25,2.48.5,2.98,1.24.5.74-.13,2.23.62,3.22,1.24,1.61,3.73,2.11,4.47,3.72.75,1.49,0,3.47.99,5.08.5.87,1.37,1.98,1.86,2.6.99,1.24,3.23,2.97,3.73,4.58.25.87-.12,1.86.37,2.85.75,1.73,1.86,1.36,3.11,2.48,1.37,1.12,2.61,3.1,3.73,4.34,1.24,1.36,2.11,2.23,2.86,3.35.37.62.75,1.24.99,2.23q0,.12.12.25c.5,1.49,1.12,4.71,2.36,4.96.12,1.98-.62,6.57,1.37,7.44.75,2.85,1.62,5.7,3.23,8.3.75,1.12,2.36,2.35,2.73,3.96.37,1.86-.37,3.84-.5,5.7-.25,3.35-.62,21.31,3.48,21.07.12,2.85,2.61,2.85,4.6,3.47,3.23.99,4.22,6.32,4.35,9.29,0,1.36.25,2.48.5,3.59.13.62.37,1.24.62,1.98.62,2.11,2.24,7.31.75,9.67-.04.07-.09.15-.15.24,0,0-.2.01-.22-.24-.12-1.36-.62-2.48-2.24-2.97-.99-.37-8.94,1.98-9.07.74-.12-.37-.12-.74-.12-.99-3.11-.37-2.36-4.59-1.62-6.69.99-2.48,2.61-4.09,1.86-7.19-.5-2.11-2.61-3.59-4.85-3.96-3.23-.5-3.73,2.97-6.09,2.6,0-.37-.12-.87-.12-1.24-2.11-.12-1.24-3.35-1.37-4.83-1.49-1.98-3.58-2.61-5.44-.88l-.92-.62c-.83-.34-1.27-.48-1.47-2.22-2.24.62-5.71.87-6.83-1.49-.87-1.61-.5-4.71-.62-6.57-.13-2.48-.37-4.58-1.37-6.69-.62-1.24-2.61-3.35-.87-4.34,0-2.23-2.24-3.72-2.61-5.82-.25-1.61.25-2.73,1.12-4.34,1.24-2.35,1.24-3.72,1.99-6.07.62-2.23,1.86-2.85,1.61-5.33-1.12-.12-1.74.13-2.73.5-1.74.62-.62.25-1.86,1.36-1.74,1.61-3.48,3.22-5.59,4.59-4.85,3.35-7.45-1.12-12.55-1.12,0-.37-.12-.74-.12-.99v-.62c1.86-2.23,3.85-5.95,4.47-8.67.62-3.1,2.11-5.95,2.86-9.17.75-2.85,1.99-4.96,2.98-7.68.37-1.24.25-2.6.62-3.72.75-1.61,1.99-2.73,2.61-4.34,1.12-2.73.87-5.58.37-8.43-.37-2.36-.87-4.83-1.12-7.19v-.9l.13-.09Z"/>
      <path class="st2" d="M405,353.54c.31.2.63.46.82.93.5.87.13,4.59.5,5.95.5,1.74,1.37,3.59.25,4.96-1.12,1.24-4.72,1.49-6.34,1.12-2.98-.62-7.08-3.72-6.71,1.61.12,3.22,2.24,6.82,3.35,9.42h-.88s-.24-.01-.16.31c.25,1.06.6,2.88,1.04,3.66.62,1.49,1.74,1.86,2.86,2.97,1.37,1.49,2.36,3.1,3.23,4.96.5,1.12.75,3.47,1.99,4.09,3.23,1.61,4.1-3.47,4.97-5.2.75-1.74,1.86-2.23,2.36-4.21.37-1.61.5-3.47,1.74-4.96-.25,1.98,1.62,2.97,1.99,4.71.37,1.98-.25,4.46,0,6.44.12,1.36.62,4.09,1.61,5.33,1.19,1.43,2.83,1.6,4.06,2.8,0,0,.18.56.97.59.81-.11,1.65-.36,2.42-.79.62-.37,1.24-.87,1.74-1.36.62-.5,2.11-2.36,2.36-2.97.5-1.24.25-2.23.62-3.47.37-1.24,1.86-2.11,2.36-3.22.37-.99.5-1.98.75-2.97.37-1.61,1.12-3.59.99-5.33-.13-1.36-.62-2.48-2.24-2.97-.99-.37-8.94,1.98-9.07.74-.12-.37-.12-.74-.12-.99-3.11-.37-2.36-4.58-1.62-6.69.99-2.48,2.61-4.09,1.86-7.19-.5-2.11-2.61-3.59-4.85-3.97-3.23-.5-3.73,2.97-6.09,2.6,0-.37-.12-.87-.12-1.24-2.11-.12-1.24-3.35-1.37-4.83-1.42-1.87-3.49-2.53-5.29-1.13v.32Z"/>
      <path class="st4" d="M404.83,353.24c-.99-.5-2.11-.5-2.36-2.6-2.24.62-5.71.87-6.83-1.49-.87-1.61-.5-4.71-.62-6.57-.13-2.48-.37-4.58-1.37-6.69-.62-1.24-2.61-3.35-.87-4.34,0-2.23-2.24-3.72-2.61-5.82-.25-1.61.25-2.73,1.12-4.34,1.24-2.35,1.24-3.72,1.99-6.07.62-2.23,1.86-2.85,1.61-5.33-1.12-.12-1.74.12-2.73.5-1.74.62-.62.25-1.86,1.36-1.74,1.61-3.48,3.22-5.59,4.59-4.85,3.35-7.45-1.12-12.55-1.12,0-.37-.12-.74-.12-.99l-.45-.13c-.05.05-.11.09-.17.13-2.24,1.86-4.72.12-7.45-1.12-3.23-1.36-10.31-7.68-12.05-2.36-.99,2.97,0,10.91-2.73,12.02v.5c0,3.72-1.37,6.82-1.62,10.66-.25,4.58-2.61,7.44-2.36,12.27,2.24,1.24,3.11,3.72,3.11,6.07.13,1.12-.62,2.35-.5,3.35.13,1.24.99,1.86,1.12,2.97.25,1.73-.37,1.49-.87,2.73-.62,1.61-.99,3.35-1.37,4.96h.37c2.61-.74,3.48,3.35,5.09,4.71,2.73,2.36,5.96,5.33,9.94,3.84.87-.37,1.24-1.74,1.86-1.86,2.11-.5,2.73.99,4.72.25,2.48-.87,2.36-2.6,4.72-1.61,1.86.74,2.61,2.35,5.34,1.61,1.24-.37,2.86-2.85,3.98-2.73,1.24.12.5,1.36,1.24,1.98,1.12.87.99.87,2.48.99,2.61.25,2.61,0,4.59,1.86,1.74,1.61,2.73,1.98,4.6,2.11h1.24c-1.12-2.6-3.23-6.2-3.35-9.42-.37-5.33,3.73-2.23,6.71-1.61,1.62.37,5.22.12,6.34-1.12,1.12-1.36.25-3.22-.25-4.96-.37-1.36,0-5.08-.5-5.95-.25-.62-.75-.87-1.12-1.12l.13-.12Z"/>
      <path class="st1" d="M395.54,377.51c-1.8-.12-2.8-.52-4.51-2.11-1.99-1.86-1.99-1.61-4.6-1.86-1.49-.13-1.37-.13-2.48-.99-.75-.62,0-1.86-1.24-1.98-1.12-.13-2.73,2.35-3.98,2.73-2.73.74-3.48-.87-5.34-1.61-2.36-.99-2.24.74-4.72,1.61-1.99.74-2.61-.74-4.72-.25-.62.13-.99,1.49-1.86,1.86-3.97,1.49-7.2-1.49-9.94-3.84-1.62-1.36-2.48-5.45-5.09-4.71-.73.09-.62,1.12-.62,1.12-.25,1.74,0,2.11-.87,3.47-.62.87-1.49,1.12-1.86,2.35-.5,1.49-1.12,5.82-.75,7.44,1.74.25,1.24,2.6,1.74,3.97.62,1.49,1.49,2.48,1.99,3.97.62,1.61.25,3.59.87,5.33.37,1.24,2.11,2.6,1.24,4.34-.25.37-.5.62-.87.87l.15.06c3.31,1.45,6.44,6.55,6.31,9.97,2.98,1.24,6.96,1.61,10.19,1.61,1.61,0,3.73.37,5.22,0,1.74-.37,3.11-1.98,5.22-1.61,1.62.25,2.61,1.61,4.22,1.86,1.49.25,2.98-.25,4.35-.37,2.86-.25,5.34-.5,8.2-.74,2.48-.12,2.11-.74,3.97-1.61,1.61-.62,3.23,0,4.97-.5,1.62-.5,2.48-2.11,3.97-2.73.87-.37,2.11-.25,2.98-.5,2.73-.62,4.85-2.6,7.45-3.47,2.36-.87,3.97-.99,6.21-2.35l.5-.25c-1.24-1.36-2.98-1.49-4.22-2.97-.99-1.24-1.49-3.96-1.62-5.33-.25-1.98.37-4.46,0-6.44-.37-1.73-2.24-2.73-1.99-4.71-1.24,1.49-1.37,3.35-1.74,4.96-.5,1.98-1.61,2.48-2.36,4.21-.87,1.73-1.74,6.81-4.97,5.2-1.24-.62-1.49-2.97-1.99-4.09-.87-1.86-1.86-3.47-3.23-4.96-1.12-1.12-2.24-1.49-2.86-2.97-.4-.69-.72-2.19-.96-3.27,0,.01.01-.4-.37-.69Z"/>
      <path class="st4" d="M424.08,426.6c-.13-4.34-.5-8.18-.25-12.51,3.23.74,1.37-1.61,1.86-3.22.5-1.24,2.11-1.49,2.86-2.85-.13-.25-.37-.74-.5-1.12-2.48-.74-1.99-2.11-1.86-4.34.11-1.42.61-3.94-.67-4.47,0,0-.06-.04-.22,0-.07.05-.15.1-.22.14-1.12.62-2.36.87-3.48.87,0,0-.28-.1-.81.07-1.95,1.06-3.49,1.24-5.65,2.03-2.61.87-4.72,2.85-7.45,3.47-.87.25-2.11.12-2.98.5-1.49.62-2.36,2.23-3.97,2.73-1.74.5-3.35-.13-4.97.5-1.86.87-1.49,1.49-3.97,1.61-2.86.25-5.34.5-8.2.74-1.37.12-2.86.62-4.35.37-1.62-.25-2.61-1.61-4.22-1.86-2.11-.37-3.48,1.24-5.22,1.61-1.49.37-3.6,0-5.22,0-3.23,0-7.21-.37-10.19-1.61.13-3.42-3.01-8.51-6.31-9.98,0,0-.11-.17-.45-.11-2.21.52-5.85-1.62-8.02-.82-1.99.62-6.46,5.7-3.23,7.19,0,1.36-.25,2.98,0,4.34.37,1.98,1.49,1.86,2.24,3.47.62,1.61,0,4.83-.13,6.94h-.99c-.37-1.49-3.48-4.34-4.85-5.08-3.35-1.98-2.86.25-5.47,1.12-2.11.74-5.59,0-7.83,0-1.86,0-6.46.25-7.58,1.36,2.36,2.23,3.97,5.08-.99,4.83-1.37,0-2.48-.5-3.48-1.12-1.12-.62-.25-2.35-2.48-1.73,0,.87-.13,1.73,0,2.6,0,0,.04.41.17.76,1.25.76,2.2,2.12,3.43,2.96,4.22,2.97,8.2,5.2,11.92,8.92,2.36,2.23,5.59,2.35,8.32,4.58,1.86,1.49,2.61,3.97,4.35,5.58,3.48,3.1,12.42,3.84,12.05,9.79,2.61.25,3.97.74,6.09,1.86,3.73,1.98,4.22.12,7.95-1.12,2.73-.87,2.73.12,4.85,1.24,1.24.62.62,1.36,1.86.12.5-.5.87-2.23.99-2.85,2.36-.13,8.2,1.24,9.19-1.86-1.99-1.49,6.58-15.24,6.96-15.24l.87.25c-1.12-.62-1.49-1.98-1.49-3.22,4.35-.13,8.45.37,12.55-.87,2.86-.87,6.58-1.74,8.32,1.12,1.49,2.6.75,6.32,4.1,7.56,1.49.62,4.1,0,5.09-1.12,1.12-1.36.25-1.61-.13-3.22-.75-2.97,0-2.23,2.36-4.21,1.24-.99,2.73-1.86,3.6-2.73,1.49-1.49,1.12-2.48,3.48-3.22.73-.27,1.47-.35,2.2-.31,0-.01.22-.02.16-.43Z"/>
      <path class="st2" d="M347.56,394.01c.37,1.24,2.11,2.6,1.24,4.34-.06.1-.14.19-.2.27-.06.09-.14.16-.21.22l-.21.12c-.17.09-.35.15-.55.2-.12.04-.25.05-.38.06-.13.03-.26.03-.4.03-2.22,0-5.32-1.61-7.24-.91-1.99.62-6.46,5.7-3.23,7.19,0,1.36-.25,2.97,0,4.34.37,1.98,1.49,1.86,2.24,3.47.62,1.61,0,4.83-.13,6.94h-.99c-.37-1.49-3.48-4.34-4.85-5.08-3.35-1.98-2.86.25-5.47,1.12-2.11.74-5.59,0-7.83,0-1.86,0-6.46.25-7.58,1.36,2.36,2.23,3.98,5.08-.99,4.83-1.37,0-2.48-.5-3.48-1.12-1.12-.62-.25-2.35-2.48-1.74,0,.87-.13,1.74,0,2.6l-.25.52c-.27-.12-.56-.22-.87-.27h-.75c-1.61,0-1.61.99-2.98,1.36-1.24.37-2.61.25-3.85.62l-.12-.09v-.1c0-.11,0-.24.01-.35,0-.45,0-.89-.04-1.31-.03-.32-.07-.63-.15-.93-.05-.2-.11-.39-.2-.57-.58-1.37-1.42-1.73-1.99-2.81,4.98-1.35,7.69-2.55,8.68-3.05.3-.15.53-.37.69-.66l.98-1.7c.27-.47.76-.78,1.29-.83l4.33-.38.65,1.24-.39-2.06c-.09-.51-.41-.94-.87-1.18-1.57-.78-5.09-2.61-5.19-3-.11-.51-.25-3.36-.68-3.82-.44-.46-3.11-3.1-3.02-3.37.06-.19.77-1.45,1.22-2.26.26-.46.69-.76,1.2-.83.68-.1,1.59-.21,1.9-.12.54.14,5.91-5.84,6.01-6.54.09-.71.14-4.31-.27-4.45-.42-.14-2.77-2.58-3.78-2.72-.92-.12-5.22-.04-6-.02-.09,0-.16,0-.25-.01-.97-.14-7.24-1-7.28-1.42-.04-.4.21-4.71.29-5.85.01-.2-.01-.37-.06-.56l-2-6.85c-.04-.14-.06-.27-.06-.42-.02-.9-.17-4.65-1.11-6.78-.16-.36-.16-.77-.04-1.14l1.12-3.25c.06-.19.09-.38.09-.58l-.11-3.95c-.01-.52.21-1.02.61-1.34.32-.26.53-.62.6-1.03l.3-1.83c.09-.55-.11-1.1-.51-1.47-.55-.5-1.28-1.14-1.66-1.33-.39-.17-.48-1.15-.5-1.91-.01-.56-.3-1.08-.78-1.38-1.3-.8-3.71-2.33-3.75-2.63-.02-.26.21-4.08.4-6.9.09-1.31-1.32-2.21-2.47-1.56l-.39.21c-.1-1.47-.58-3.06-.12-4.51.5-1.74,1.61-2.36,2.36-3.97l.24-.47c.17-.04.36-.07.54-.13.41-.1.82-.21,1.18-.27.07-.01.15-.02.22-.04.25-.02.48-.02.68.04,1.24.37,1.86,1.36,3.23,1.61,3.23.5,5.71-1.61,9.07-1.61,5.96,0,11.93.5,17.76-.74,4.97-1.12,11.3-3.84,16.27-1.61,2.61,1.12,4.35,3.47,7.2,3.97,1.24.25,4.47.5,6.46.25.12,0,.25-.01.37-.03.1-.01.2-.02.3-.05.11-.01.21-.05.3-.07l.27.4c0,3.72-1.37,6.82-1.62,10.66-.25,4.58-2.61,7.44-2.36,12.27,2.24,1.24,3.1,3.72,3.1,6.07.13,1.12-.62,2.35-.5,3.35.13,1.24.99,1.86,1.12,2.97.25,1.73-.37,1.49-.87,2.73-.62,1.61-.99,3.35-1.37,4.96-.03.09-.06.17-.07.26,0,0-.01.01-.01.02-.09.27-.16.55-.16.83-.25,1.74,0,2.11-.87,3.47-.62.87-1.49,1.12-1.86,2.35-.5,1.49-1.12,5.82-.75,7.44,1.74.25,1.24,2.6,1.74,3.97.62,1.49,1.49,2.48,1.99,3.97.62,1.61.25,3.59.87,5.33Z"/>
    </g>
  </g>
</svg>